<svg xmlns="http://www.w3.org/2000/svg" xmlns:xlink="http://www.w3.org/1999/xlink" width="249.5" height="57.826" viewBox="0 0 249.5 57.826">
  <defs>
    <linearGradient id="linear-gradient" x1="0.256" y1="0.807" x2="1.041" y2="0.193" gradientUnits="objectBoundingBox">
      <stop offset="0" stop-color="#c7c7c7" stop-opacity="0"/>
      <stop offset="1" stop-color="#8b8b8b"/>
    </linearGradient>
  </defs>
  <g id="Logo" transform="translate(-279.5 -21.5)">
    <g id="Symbol" transform="translate(752.11 -350.173)">
      <path id="Path_49" data-name="Path 49" d="M-452.323,411.558h-.734s.1,5.553-2.681,6.862v4.6a6.3,6.3,0,0,0,5.059,0v-8.421A6.329,6.329,0,0,1-452.323,411.558Z" fill="#8d8d8d" stroke="#4c4c4c" stroke-linecap="round" stroke-linejoin="round" stroke-width="1"/>
      <path id="Path_50" data-name="Path 50" d="M-412.366,409.2a35.717,35.717,0,0,0-5.835-2.849,16.383,16.383,0,0,0-4.189,8.565c-.006.05-.008.1-.015.153,2.853-.637,8.381,3.9,10.359,4.918s3.638-1.787,4.914-3.51S-409.876,410.792-412.366,409.2Z" fill="#8b8b8b" stroke="#4c4c4c" stroke-linecap="round" stroke-linejoin="round" stroke-width="1"/>
      <path id="Path_51" data-name="Path 51" d="M-423.727,376.388s14.936-3.447,19.149,5.553,2.425,19.34,8.936,18.957,4.468-5.361,6.893-4.34-.453,8.795-7.346,8.795-13.717-5.348-16.526-10.2a6.735,6.735,0,0,0,2.537,6.415c3.319,2.425,2.633,3.223,2.25,3.8s-2.33-.414-6.191-.989-8.458,6.814-8.458,11.745v11.393s-1.34,1.484-5.553,1.484-5.074-1.484-5.074-1.484v-9.766s-17.234,2.554-19.213-6.191h-.734s.1,5.553-2.681,6.862v5.968a5.839,5.839,0,0,1-4.132,1.436,6.583,6.583,0,0,1-4.23-1.309v-8.9s-3.1-3.989-3.1-14.425,8.808-18.383,23.553-18.383" fill="#c7c7c7" stroke="#4c4c4c" stroke-linecap="round" stroke-linejoin="round" stroke-width="1"/>
      <g id="Flag">
        <g id="Group_140" data-name="Group 140">
          <g id="Group_139" data-name="Group 139">
            <path id="Path_52" data-name="Path 52" d="M-439.544,400.31c-.14.68,1.26,5.5,1.65,7.06-1.15.21-2.36.37-3.6.48-.17-.4-4.53-10.76-1.69-21.29a9.83,9.83,0,0,0,4.78,5.72S-441.054,396.52-439.544,400.31Z" fill="red"/>
            <path id="Path_53" data-name="Path 53" d="M-443.644,382.8a10.659,10.659,0,0,0,.46,3.76c-2.84,10.53,1.52,20.89,1.69,21.29-1.75.16-3.55.24-5.32.25a46.265,46.265,0,0,1,.54-25.2C-445.424,382.83-444.544,382.8-443.644,382.8Z" fill="#fff"/>
            <path id="Path_54" data-name="Path 54" d="M-446.814,408.1c-2.88.04-5.68-.09-7.97-.24a33.024,33.024,0,0,1,2.61-24.03,30.472,30.472,0,0,1,5.9-.93A46.265,46.265,0,0,0-446.814,408.1Z" fill="#001663"/>
            <path id="Path_55" data-name="Path 55" d="M-454.754,384.64a20.438,20.438,0,0,1,2.58-.81,33.024,33.024,0,0,0-2.61,24.03c-1.5-.1-2.78-.22-3.73-.31v-.01S-461.764,393.96-454.754,384.64Z" fill="#fff"/>
            <path id="Path_56" data-name="Path 56" d="M-455.754,385.02c.33-.14.66-.27,1-.38-7.01,9.32-3.76,22.9-3.76,22.9v.01c-1.13-.12-1.79-.2-1.79-.2C-463.884,392.19-455.984,385.22-455.754,385.02Z" fill="red"/>
          </g>
        </g>
      </g>
      <path id="Path_57" data-name="Path 57" d="M-467.2,401.186s-2.809-.032-2.809,4.18-.447,6.511-2.106,6.511" fill="none" stroke="#4c4c4c" stroke-linecap="round" stroke-linejoin="round" stroke-width="1"/>
      <path id="Path_58" data-name="Path 58" d="M-426.727,405.047s-6.192,1.915-10.979-2.17-.7-10.6-.7-10.6a9.9,9.9,0,0,1-5.234-9.478c.319-6.926,4.723-10.63,10.4-10.63s7.5,1.869,9.511,4.215" fill="#c7c7c7" stroke="#4c4c4c" stroke-linecap="round" stroke-linejoin="round" stroke-width="1"/>
      <path id="Path_59" data-name="Path 59" d="M-410.922,388.274a2.029,2.029,0,0,1,2.315-1.7,2.029,2.029,0,0,1,1.7,2.315" fill="#c7c7c7" stroke="#4c4c4c" stroke-linecap="round" stroke-linejoin="round" stroke-width="1.3"/>
      <path id="Path_60" data-name="Path 60" d="M-423.727,376.388s14.936-3.447,19.149,5.553,2.425,19.34,8.936,18.957,4.468-5.361,6.893-4.34-.453,8.795-7.346,8.795-13.717-5.348-16.526-10.2a6.735,6.735,0,0,0,2.537,6.415c3.319,2.425,2.633,3.223,2.25,3.8s-2.33-.414-6.191-.989-8.458,6.814-8.458,11.745v11.393s-1.34,1.484-5.553,1.484-5.074-1.484-5.074-1.484v-9.766s-17.234,2.554-19.213-6.191h-.734s.1,5.553-2.681,6.862v5.968a5.839,5.839,0,0,1-4.132,1.436,6.583,6.583,0,0,1-4.23-1.309v-8.9s-3.1-3.989-3.1-14.425,8.808-18.383,23.553-18.383" fill="none" stroke="#4c4c4c" stroke-linecap="round" stroke-linejoin="round" stroke-width="1"/>
      <path id="Path_61" data-name="Path 61" d="M-425.121,377.229c-1.7-1.982-3.237-3.562-8.037-3.562s-8.523,3.13-8.792,8.983a8.367,8.367,0,0,0,4.423,8.01s7.267,3.616,12.406,4.542" fill="url(#linear-gradient)"/>
    </g>
    <text id="DISCOVERY" transform="translate(452 44)" fill="#fff" font-size="22" font-family="Helvetica-Bold, Helvetica" font-weight="700"><tspan x="-64.389" y="0">DISCOVERY</tspan></text>
    <text id="THAILAND" transform="translate(375 72)" fill="#ffce00" font-size="30" font-family="Helvetica-Bold, Helvetica" font-weight="700"><tspan x="0" y="0">THAILAND</tspan></text>
  </g>
</svg>
